<?xml version="1.0" encoding="utf-8"?>
<!-- Generator: Adobe Illustrator 24.3.0, SVG Export Plug-In . SVG Version: 6.00 Build 0)  -->
<svg version="1.1" id="Capa_1" xmlns="http://www.w3.org/2000/svg" xmlns:xlink="http://www.w3.org/1999/xlink" x="0px" y="0px"
	 viewBox="0 0 150 150" style="enable-background:new 0 0 150 150;" xml:space="preserve">
<style type="text/css">
	.st0{fill:#EEEEEE;}
	.st1{stroke:#000000;stroke-width:0.7018;stroke-linecap:round;stroke-linejoin:round;stroke-miterlimit:10;}
	.st2{fill:#EEEEEE;stroke:#EEEEEE;stroke-width:4.2642;stroke-linecap:round;stroke-linejoin:round;stroke-miterlimit:10;}
	.st3{stroke:#000000;stroke-width:6.502432e-02;stroke-linecap:round;stroke-linejoin:round;stroke-miterlimit:10;}
</style>
<g>
	<circle class="st0" cx="75" cy="75" r="70.7"/>
	<g>
		<g>
			<path class="st1" d="M115.2,117.2h-1.5V78.7c3.4-2.2,5.5-5.9,5.5-10.2c0-0.2,0-0.5-0.2-0.6l-10.3-18c-0.8-1.2-2-2-3.5-2H44.8
				c-1.4,0-2.8,0.8-3.5,2L31,68c-0.2,0.2-0.2,0.5-0.2,0.6c0,4.3,2.2,8,5.5,10.2v38.5h-1.5c-0.8,0-1.2,0.6-1.2,1.2
				c0,0.8,0.6,1.2,1.2,1.2H115c0.8,0,1.2-0.6,1.2-1.2C116.6,117.9,116,117.2,115.2,117.2z M33.6,70.1h4.2c0.8,0,1.2-0.6,1.2-1.2
				c0-0.8-0.6-1.2-1.2-1.2h-3.4l9.2-16.2c0.3-0.5,0.8-0.8,1.2-0.8h60.5c0.5,0,1.1,0.3,1.2,0.8l9.2,16h-3.2c-0.8,0-1.2,0.6-1.2,1.2
				c0,0.8,0.6,1.2,1.2,1.2h4.2c-0.6,4.6-4.6,8.2-9.4,8.2s-8.8-3.5-9.4-8.2h8.9c0.8,0,1.2-0.6,1.2-1.2c0-0.8-0.6-1.2-1.2-1.2H43.3
				c-0.8,0-1.2,0.6-1.2,1.2c0,0.8,0.6,1.2,1.2,1.2h8.9c-0.6,4.6-4.6,8.2-9.4,8.2C38,78.1,34.2,74.6,33.6,70.1z M95.2,70.1
				c-0.6,4.6-4.6,8.2-9.4,8.2s-8.8-3.5-9.4-8.2H95.2z M73.6,70.1c-0.6,4.6-4.6,8.2-9.4,8.2s-8.8-3.5-9.4-8.2H73.6z M39,80.1
				c1.2,0.5,2.5,0.6,3.8,0.6c4.6,0,8.8-2.6,10.8-6.6c2,3.8,6,6.6,10.8,6.6c4.8,0,8.8-2.6,10.8-6.6c2,3.8,6,6.6,10.8,6.6
				s8.8-2.6,10.8-6.6c2,3.8,6,6.6,10.8,6.6c1.4,0,2.6-0.3,3.8-0.6v37.1H107V85.4c0-0.8-0.6-1.2-1.2-1.2H88.9c-0.8,0-1.2,0.6-1.2,1.2
				v31.9H39V80.1z M104.3,110.3h-14V86.6h14V110.3z M90.2,112.9h14v4.3h-14L90.2,112.9z"/>
			<path class="st1" d="M81.9,84.1H44.7c-0.8,0-1.2,0.6-1.2,1.2v26.3c0,0.8,0.6,1.2,1.2,1.2h37.4c0.8,0,1.2-0.6,1.2-1.2V85.4
				C83.3,84.6,82.7,84.1,81.9,84.1z M80.7,110.3H45.9V86.6h34.8V110.3z"/>
		</g>
		<g>
			<rect x="65.3" y="45.4" class="st0" width="18.8" height="8.6"/>
			<path class="st2" d="M59.7,41.5c-0.2-0.7-0.5-1.5-0.6-2.2c-0.2-0.9-0.3-1.8-0.3-2.8c0-0.1,0-0.3,0-0.4c0-1.4,0.2-2.8,0.6-4.2
				c0.1-0.4,0.2-0.8,0.3-1.2c0.4-0.9,0.8-1.8,1.2-2.7c0.2-0.3,0.4-0.6,0.6-0.9c0.4-0.6,0.9-1.2,1.3-1.7c0.5-0.5,0.9-0.9,1.4-1.4
				c0.5-0.4,1.1-0.9,1.7-1.3c0.3-0.2,0.7-0.4,1-0.6c0.9-0.5,1.8-0.9,2.7-1.2c0.9-0.3,1.8-0.5,2.7-0.7c0.9-0.1,1.8-0.2,2.6-0.2
				c1.8,0,3.5,0.3,5.2,0.8c0.1,0,0.1,0,0.2,0.1c0.9,0.4,1.8,0.8,2.7,1.2c0.3,0.2,0.6,0.4,0.9,0.6c0.6,0.4,1.2,0.9,1.8,1.4
				c0.4,0.4,0.8,0.9,1.3,1.3c0.5,0.6,0.9,1.2,1.4,1.8c0.2,0.3,0.4,0.6,0.6,0.9c0.1,0.2,0.2,0.4,0.3,0.6c0.4,0.7,0.6,1.4,0.9,2.1
				c0.2,0.8,0.5,1.6,0.6,2.4c0,0.1,0.1,0.2,0.1,0.4c0,0.3,0.1,0.6,0.1,0.9c0,0.6,0.1,1.2,0.1,1.8c0,0.1,0,0.3,0,0.4
				c0,0.9-0.1,1.9-0.2,2.8c-0.1,0.8-0.4,1.5-0.6,2.2c-0.4,0.9-0.8,1.8-1.3,2.7c-0.2,0.3-0.4,0.6-0.5,0.9c-0.4,0.6-0.8,1.2-1.1,1.8
				c-0.7,1.1-1.4,2.1-2.2,3.2c-0.5,0.7-1,1.5-1.5,2.2c-0.2,0.2-0.4,0.5-0.5,0.8c-0.5,0.6-0.9,1.3-1.4,1.9c-0.5,0.7-1,1.3-1.4,2
				c-0.2,0.2-0.3,0.4-0.5,0.7c-0.6,0.9-1.3,1.8-1.9,2.7c-0.1,0.1-0.2,0.3-0.3,0.4c-0.3,0.5-0.6,0.9-1,1.4c-0.6,0.8-1.3,1-2.2,0.9
				c0,0-0.1,0-0.1,0c-0.5-0.2-1-0.6-1.3-1.1c-0.3-0.4-0.6-0.8-0.8-1.2c-0.1-0.1-0.1-0.2-0.2-0.3c-0.1-0.1-0.1-0.2-0.2-0.2
				c-0.6-0.8-1.1-1.7-1.7-2.5c-0.1-0.2-0.3-0.5-0.5-0.7c-0.5-0.7-0.9-1.3-1.4-2c-0.4-0.6-0.9-1.3-1.3-1.9c-0.2-0.3-0.4-0.6-0.6-0.8
				c-0.7-1-1.3-1.9-2-2.9c-0.6-0.8-1.1-1.6-1.7-2.5c-0.4-0.6-0.8-1.3-1.2-1.9c-0.2-0.3-0.3-0.6-0.5-0.8
				C60.6,43.3,60.1,42.4,59.7,41.5z M75,59.8c0.1,0.1,0.1,0,0.1,0c0.5-0.7,1-1.4,1.4-2.1c0.4-0.6,0.9-1.2,1.3-1.8
				c0.2-0.3,0.4-0.6,0.6-0.9c0.6-0.9,1.2-1.8,1.9-2.7c0-0.1,0.1-0.1,0.1-0.2c0.6-0.8,1.2-1.7,1.8-2.5c0.3-0.4,0.6-0.9,0.9-1.3
				c0.3-0.4,0.6-0.9,0.9-1.4c0.6-0.9,1.2-1.7,1.7-2.6c0,0,0,0,0-0.1c0.6-0.9,1.1-1.7,1.5-2.7c0.4-0.9,0.8-1.8,0.9-2.7
				c0-0.3,0.1-0.5,0.1-0.8c0.1-0.6,0.1-1.3,0.1-1.9c0-0.9-0.1-1.8-0.3-2.7c-0.2-0.9-0.5-1.9-0.9-2.7c-0.4-0.9-0.9-1.8-1.5-2.6
				c0,0,0-0.1-0.1-0.1c-0.1-0.2-0.3-0.3-0.4-0.5c-0.7-0.8-1.4-1.6-2.3-2.2c0,0-0.1-0.1-0.1-0.1c-0.8-0.6-1.7-1.1-2.6-1.5
				c-0.8-0.4-1.7-0.7-2.7-0.8c-0.9-0.2-1.8-0.3-2.7-0.3c-0.9,0-1.8,0.1-2.7,0.3c-0.9,0.2-1.8,0.5-2.7,0.8c-1,0.4-1.9,0.9-2.7,1.6
				c0,0,0,0,0,0c-1,0.7-1.9,1.7-2.7,2.7c0,0,0,0,0,0c-0.6,0.8-1.2,1.7-1.6,2.7c-0.4,0.8-0.6,1.7-0.8,2.6c0,0.2-0.1,0.5-0.1,0.7
				c-0.1,0.7-0.2,1.4-0.1,2.1c0,0.9,0,1.8,0.2,2.7c0.2,1,0.5,1.9,1,2.8c0.4,0.9,0.9,1.7,1.4,2.6c0,0,0,0,0,0.1
				c0.6,0.9,1.2,1.8,1.8,2.7c0.3,0.4,0.6,0.9,0.9,1.3c0.3,0.5,0.6,1,1,1.4c0.6,0.8,1.1,1.6,1.7,2.4c0,0.1,0.1,0.2,0.2,0.3
				c0.6,0.9,1.2,1.8,1.9,2.7c0.2,0.3,0.4,0.7,0.7,1c0.4,0.6,0.8,1.2,1.2,1.7C74,58.4,74.5,59.1,75,59.8z"/>
			<path class="st3" d="M59.7,41.5c-0.2-0.7-0.5-1.5-0.6-2.2c-0.2-0.9-0.3-1.8-0.3-2.8c0-0.1,0-0.3,0-0.4c0-1.4,0.2-2.8,0.6-4.2
				c0.1-0.4,0.2-0.8,0.3-1.2c0.4-0.9,0.8-1.8,1.2-2.7c0.2-0.3,0.4-0.6,0.6-0.9c0.4-0.6,0.9-1.2,1.3-1.7c0.5-0.5,0.9-0.9,1.4-1.4
				c0.5-0.4,1.1-0.9,1.7-1.3c0.3-0.2,0.7-0.4,1-0.6c0.9-0.5,1.8-0.9,2.7-1.2c0.9-0.3,1.8-0.5,2.7-0.7c0.9-0.1,1.8-0.2,2.6-0.2
				c1.8,0,3.5,0.3,5.2,0.8c0.1,0,0.1,0,0.2,0.1c0.9,0.4,1.8,0.8,2.7,1.2c0.3,0.2,0.6,0.4,0.9,0.6c0.6,0.4,1.2,0.9,1.8,1.4
				c0.4,0.4,0.8,0.9,1.3,1.3c0.5,0.6,0.9,1.2,1.4,1.8c0.2,0.3,0.4,0.6,0.6,0.9c0.1,0.2,0.2,0.4,0.3,0.6c0.4,0.7,0.6,1.4,0.9,2.1
				c0.2,0.8,0.5,1.6,0.6,2.4c0,0.1,0.1,0.2,0.1,0.4c0,0.3,0.1,0.6,0.1,0.9c0,0.6,0.1,1.2,0.1,1.8c0,0.1,0,0.3,0,0.4
				c0,0.9-0.1,1.9-0.2,2.8c-0.1,0.8-0.4,1.5-0.6,2.2c-0.4,0.9-0.8,1.8-1.3,2.7c-0.2,0.3-0.4,0.6-0.5,0.9c-0.4,0.6-0.8,1.2-1.1,1.8
				c-0.7,1.1-1.4,2.1-2.2,3.2c-0.5,0.7-1,1.5-1.5,2.2c-0.2,0.2-0.4,0.5-0.5,0.8c-0.5,0.6-0.9,1.3-1.4,1.9c-0.5,0.7-1,1.3-1.4,2
				c-0.2,0.2-0.3,0.4-0.5,0.7c-0.6,0.9-1.3,1.8-1.9,2.7c-0.1,0.1-0.2,0.3-0.3,0.4c-0.3,0.5-0.6,0.9-1,1.4c-0.6,0.8-1.3,1-2.2,0.9
				c0,0-0.1,0-0.1,0c-0.5-0.2-1-0.6-1.3-1.1c-0.3-0.4-0.6-0.8-0.8-1.2c-0.1-0.1-0.1-0.2-0.2-0.3c-0.1-0.1-0.1-0.2-0.2-0.2
				c-0.6-0.8-1.1-1.7-1.7-2.5c-0.1-0.2-0.3-0.5-0.5-0.7c-0.5-0.7-0.9-1.3-1.4-2c-0.4-0.6-0.9-1.3-1.3-1.9c-0.2-0.3-0.4-0.6-0.6-0.8
				c-0.7-1-1.3-1.9-2-2.9c-0.6-0.8-1.1-1.6-1.7-2.5c-0.4-0.6-0.8-1.3-1.2-1.9c-0.2-0.3-0.3-0.6-0.5-0.8
				C60.6,43.3,60.1,42.4,59.7,41.5z M75,59.8c0.1,0.1,0.1,0,0.1,0c0.5-0.7,1-1.4,1.4-2.1c0.4-0.6,0.9-1.2,1.3-1.8
				c0.2-0.3,0.4-0.6,0.6-0.9c0.6-0.9,1.2-1.8,1.9-2.7c0-0.1,0.1-0.1,0.1-0.2c0.6-0.8,1.2-1.7,1.8-2.5c0.3-0.4,0.6-0.9,0.9-1.3
				c0.3-0.4,0.6-0.9,0.9-1.4c0.6-0.9,1.2-1.7,1.7-2.6c0,0,0,0,0-0.1c0.6-0.9,1.1-1.7,1.5-2.7c0.4-0.9,0.8-1.8,0.9-2.7
				c0-0.3,0.1-0.5,0.1-0.8c0.1-0.6,0.1-1.3,0.1-1.9c0-0.9-0.1-1.8-0.3-2.7c-0.2-0.9-0.5-1.9-0.9-2.7c-0.4-0.9-0.9-1.8-1.5-2.6
				c0,0,0-0.1-0.1-0.1c-0.1-0.2-0.3-0.3-0.4-0.5c-0.7-0.8-1.4-1.6-2.3-2.2c0,0-0.1-0.1-0.1-0.1c-0.8-0.6-1.7-1.1-2.6-1.5
				c-0.8-0.4-1.7-0.7-2.7-0.8c-0.9-0.2-1.8-0.3-2.7-0.3c-0.9,0-1.8,0.1-2.7,0.3c-0.9,0.2-1.8,0.5-2.7,0.8c-1,0.4-1.9,0.9-2.7,1.6
				c0,0,0,0,0,0c-1,0.7-1.9,1.7-2.7,2.7c0,0,0,0,0,0c-0.6,0.8-1.2,1.7-1.6,2.7c-0.4,0.8-0.6,1.7-0.8,2.6c0,0.2-0.1,0.5-0.1,0.7
				c-0.1,0.7-0.2,1.4-0.1,2.1c0,0.9,0,1.8,0.2,2.7c0.2,1,0.5,1.9,1,2.8c0.4,0.9,0.9,1.7,1.4,2.6c0,0,0,0,0,0.1
				c0.6,0.9,1.2,1.8,1.8,2.7c0.3,0.4,0.6,0.9,0.9,1.3c0.3,0.5,0.6,1,1,1.4c0.6,0.8,1.1,1.6,1.7,2.4c0,0.1,0.1,0.2,0.2,0.3
				c0.6,0.9,1.2,1.8,1.9,2.7c0.2,0.3,0.4,0.7,0.7,1c0.4,0.6,0.8,1.2,1.2,1.7C74,58.4,74.5,59.1,75,59.8z"/>
			<path class="st3" d="M82.6,33.4c0.1,0.4,0.3,0.8,0.3,1.2c0,0.2,0.1,0.3,0.1,0.5c0,0.3,0,0.7,0.1,1c0,0.4,0,0.8-0.1,1.1
				c-0.1,0.5-0.2,1.1-0.4,1.6c-0.1,0.2-0.2,0.4-0.3,0.7c-0.3,0.8-0.8,1.4-1.3,2.1c-0.2,0.2-0.4,0.4-0.6,0.7
				c-0.8,0.7-1.7,1.2-2.7,1.6c-0.5,0.2-1,0.3-1.5,0.4c-0.4,0-0.8,0.1-1.2,0.1c-0.3,0-0.5,0-0.8,0c-0.6-0.1-1.2-0.2-1.9-0.4
				c-1-0.4-1.9-0.9-2.7-1.6c-0.2-0.2-0.5-0.5-0.7-0.7c-0.1-0.2-0.3-0.4-0.4-0.5c-0.5-0.7-0.9-1.4-1.2-2.2c-0.2-0.6-0.3-1.1-0.4-1.7
				c0-0.3,0-0.7-0.1-1c0-0.3,0-0.7,0.1-1c0.1-0.1,0-0.2,0.1-0.3c0.1-0.5,0.2-0.9,0.3-1.4c0.2-0.5,0.4-1,0.7-1.5
				c0.3-0.4,0.6-0.8,0.8-1.1c0.2-0.2,0.5-0.5,0.7-0.7c0.8-0.7,1.7-1.2,2.6-1.5c0.6-0.2,1.1-0.3,1.7-0.4c0.3,0,0.7,0,1-0.1
				c0.3,0,0.6,0,0.8,0c0.6,0.1,1.3,0.2,1.9,0.4c1,0.4,1.9,0.9,2.7,1.6c0.2,0.2,0.5,0.5,0.7,0.7c0.1,0.1,0.2,0.3,0.3,0.4
				C81.9,31.8,82.3,32.6,82.6,33.4z M70.4,33.4c-0.5,0.8-0.8,1.7-0.7,2.7c0,1,0.2,1.9,0.7,2.8c0.5,0.8,1.1,1.4,1.9,1.9
				c0.8,0.5,1.8,0.8,2.8,0.8c1,0,1.9-0.2,2.7-0.7c0.8-0.5,1.5-1.1,1.9-1.9c0.5-0.8,0.8-1.7,0.7-2.7c0-1-0.2-1.9-0.7-2.7
				c-0.5-0.8-1.1-1.5-1.9-1.9C76.9,31,76,30.7,75,30.7c-1,0-1.9,0.2-2.7,0.7C71.5,31.9,70.8,32.6,70.4,33.4z"/>
		</g>
	</g>
</g>
</svg>
