<?xml version="1.0" encoding="utf-8"?>
<!-- Generator: Adobe Illustrator 24.3.0, SVG Export Plug-In . SVG Version: 6.00 Build 0)  -->
<svg version="1.1" id="Capa_1" xmlns="http://www.w3.org/2000/svg" xmlns:xlink="http://www.w3.org/1999/xlink" x="0px" y="0px"
	 viewBox="0 0 150 150" style="enable-background:new 0 0 150 150;" xml:space="preserve">
<style type="text/css">
	.st0{fill:#EEEEEE;}
</style>
<g>
	<ellipse class="st0" cx="75.3" cy="75.5" rx="68" ry="70.7"/>
	<g>
		<path d="M38.1,75.6l21,0.1c1.1,0,2-1,2-2.1c0-0.6-0.2-1.1-0.6-1.5s-1-0.6-1.4-0.6l-21-0.2c-1.2,0-2,1-2,2.1c0,0.6,0.2,1.1,0.6,1.5
			C37,75.2,37.5,75.6,38.1,75.6"/>
		<path d="M41.6,67.4h20.9c1.2,0,2-1,2-2.1c0-1.2-1-2.1-2-2.1H41.6c-1.2,0-2,1-2,2.1C39.5,66.5,40.5,67.4,41.6,67.4"/>
		<path d="M57.6,81.7c0-1.2-1-2.1-2-2.1h-21c-1.2,0-2,1-2,2.1c0,1.1,1,2.1,2,2.1h21C56.6,83.9,57.6,82.9,57.6,81.7"/>
		<path d="M48.5,91.1h-3.1v-2.7c0-1.2-1-2.1-2-2.1c-1.1,0-2,1-2,2.1v4.9c0,1.2,1,2.1,2,2.1h5.3c1.2,0,2-1,2-2.1
			C50.5,92.1,49.6,91.1,48.5,91.1"/>
		<path d="M115.9,63.1l-9.6-8.2c-1.3-1.1-2.9-1.7-4.5-1.7H89.4v-6.1c0-1.2-1-2.1-2-2.1H43.2c-1.2,0-2,1-2,2.1v11.2
			c0,1.2,1,2.1,2,2.1c1.2,0,2-1,2-2.1v-9.1h39.9v41.9H71.4c-1.2,0-2,1-2,2.1c0,1.1,1,2.1,2,2.1h21.1c1.2,0,2-1,2-2.1
			c0-1.2-1-2.1-2-2.1h-3.1V57.5h11c1.6,0,3.1,0.6,4.3,1.6l7.9,6.8c0.8,0.7,1.3,1.7,1.3,2.9l-0.1,22.4h-1.6c-1.2,0-2,1-2,2.1
			c0,1.2,1,2.1,2,2.1h3.6c1.2,0,2-1,2-2.1L118,68C118,66,117.2,64.3,115.9,63.1"/>
		<path d="M102.3,89c-2.2,0-4.2,0.9-5.7,2.5c-1.6,1.6-2.4,3.7-2.4,6s0.8,4.4,2.4,6s3.6,2.5,5.7,2.5c4.4,0,8-3.7,8-8.5
			C110.3,92.7,106.7,89,102.3,89 M102.3,101.6c-2.2,0-4.1-1.9-4.1-4.1s1.9-4.1,4.1-4.1s3.9,1.9,3.9,4.1
			C106.1,99.7,104.4,101.6,102.3,101.6"/>
		<path d="M60,89c-2.2,0-4.2,0.9-5.7,2.5c-1.6,1.6-2.4,3.7-2.4,6s0.8,4.4,2.4,6s3.6,2.5,5.7,2.5c4.4,0,8-3.7,8-8.5
			C68.1,92.7,64.5,89,60,89 M63.9,97.3c0,2.2-1.8,4.1-3.9,4.1c-2.2,0-4.1-1.9-4.1-4.1s1.9-4.1,4.1-4.1
			C62.1,93.2,63.9,95.1,63.9,97.3"/>
	</g>
</g>
</svg>
